<?xml version="1.0" encoding="UTF-8" standalone="no"?>
<!-- Created with Inkscape (http://www.inkscape.org/) -->

<svg
   version="1.1"
   id="svg1"
   width="200"
   height="200"
   viewBox="0 0 200 200"
   sodipodi:docname="icon.svg"
   inkscape:version="1.2 (dc2aedaf03, 2022-05-15)"
   xmlns:inkscape="http://www.inkscape.org/namespaces/inkscape"
   xmlns:sodipodi="http://sodipodi.sourceforge.net/DTD/sodipodi-0.dtd"
   xmlns="http://www.w3.org/2000/svg"
   xmlns:svg="http://www.w3.org/2000/svg">
  <defs
     id="defs1">
    <clipPath
       clipPathUnits="userSpaceOnUse"
       id="clipPath1">
      <path
         d="m -6.898,-6.016 h 260.41 V 167.591 H -6.898 Z"
         transform="matrix(0,0.0038401,0.00576014,0,0.03465343,0.026489)"
         id="path1" />
    </clipPath>
    <clipPath
       clipPathUnits="userSpaceOnUse"
       id="clipPath2">
      <path
         d="M -6.89812,167.591 H 253.512 V -6.01607 H -6.89812 Z"
         transform="matrix(1.3333333,0,0,-1.3333333,0,215.43333)"
         id="path2" />
    </clipPath>
    <clipPath
       clipPathUnits="userSpaceOnUse"
       id="clipPath5">
      <path
         d="M 0,161.575 H 246.614 V 0 H 0 Z"
         transform="translate(-104.703,-97.457002)"
         id="path5" />
    </clipPath>
    <clipPath
       clipPathUnits="userSpaceOnUse"
       id="clipPath7">
      <path
         d="M 0,161.575 H 246.614 V 0 H 0 Z"
         transform="translate(-129.454,-97.457002)"
         id="path7" />
    </clipPath>
    <clipPath
       clipPathUnits="userSpaceOnUse"
       id="clipPath9">
      <path
         d="M 0,161.575 H 246.614 V 0 H 0 Z"
         transform="translate(-38.506301,-49.521604)"
         id="path9" />
    </clipPath>
    <clipPath
       clipPathUnits="userSpaceOnUse"
       id="clipPath11">
      <path
         d="M 0,161.575 H 246.614 V 0 H 0 Z"
         transform="translate(-47.758201,-47.235401)"
         id="path11" />
    </clipPath>
    <clipPath
       clipPathUnits="userSpaceOnUse"
       id="clipPath13">
      <path
         d="M 0,161.575 H 246.614 V 0 H 0 Z"
         transform="translate(-60.934001,-45.057701)"
         id="path13" />
    </clipPath>
    <clipPath
       clipPathUnits="userSpaceOnUse"
       id="clipPath15">
      <path
         d="M 0,161.575 H 246.614 V 0 H 0 Z"
         transform="translate(-68.043902,-52.437604)"
         id="path15" />
    </clipPath>
    <clipPath
       clipPathUnits="userSpaceOnUse"
       id="clipPath17">
      <path
         d="M 0,161.575 H 246.614 V 0 H 0 Z"
         transform="translate(-76.395902,-41.619199)"
         id="path17" />
    </clipPath>
    <clipPath
       clipPathUnits="userSpaceOnUse"
       id="clipPath19">
      <path
         d="M 0,161.575 H 246.614 V 0 H 0 Z"
         transform="translate(-85.4677,-47.937604)"
         id="path19" />
    </clipPath>
    <clipPath
       clipPathUnits="userSpaceOnUse"
       id="clipPath21">
      <path
         d="M 0,161.575 H 246.614 V 0 H 0 Z"
         transform="translate(-96.429602,-51.141701)"
         id="path21" />
    </clipPath>
    <clipPath
       clipPathUnits="userSpaceOnUse"
       id="clipPath23">
      <path
         d="M 0,161.575 H 246.614 V 0 H 0 Z"
         transform="translate(-100.929,-52.437604)"
         id="path23" />
    </clipPath>
    <clipPath
       clipPathUnits="userSpaceOnUse"
       id="clipPath25">
      <path
         d="M 0,161.575 H 246.614 V 0 H 0 Z"
         transform="translate(-112.809,-43.275499)"
         id="path25" />
    </clipPath>
    <clipPath
       clipPathUnits="userSpaceOnUse"
       id="clipPath27">
      <path
         d="M 0,161.575 H 246.614 V 0 H 0 Z"
         transform="translate(-126.399,-45.903401)"
         id="path27" />
    </clipPath>
    <clipPath
       clipPathUnits="userSpaceOnUse"
       id="clipPath29">
      <path
         d="M 0,161.575 H 246.614 V 0 H 0 Z"
         transform="translate(-134.697,-45.903401)"
         id="path29" />
    </clipPath>
    <clipPath
       clipPathUnits="userSpaceOnUse"
       id="clipPath31">
      <path
         d="M 0,161.575 H 246.614 V 0 H 0 Z"
         transform="translate(-145.10001,-47.559604)"
         id="path31" />
    </clipPath>
    <clipPath
       clipPathUnits="userSpaceOnUse"
       id="clipPath33">
      <path
         d="M 0,161.575 H 246.614 V 0 H 0 Z"
         transform="translate(-152.48001,-51.141701)"
         id="path33" />
    </clipPath>
    <clipPath
       clipPathUnits="userSpaceOnUse"
       id="clipPath35">
      <path
         d="M 0,161.575 H 246.614 V 0 H 0 Z"
         transform="translate(-158.87001,-47.973701)"
         id="path35" />
    </clipPath>
    <clipPath
       clipPathUnits="userSpaceOnUse"
       id="clipPath37">
      <path
         d="M 0,161.575 H 246.614 V 0 H 0 Z"
         transform="translate(-169.45401,-36.273498)"
         id="path37" />
    </clipPath>
    <clipPath
       clipPathUnits="userSpaceOnUse"
       id="clipPath39">
      <path
         d="M 0,161.575 H 246.614 V 0 H 0 Z"
         transform="translate(-181.15401,-47.973701)"
         id="path39" />
    </clipPath>
    <clipPath
       clipPathUnits="userSpaceOnUse"
       id="clipPath41">
      <path
         d="M 0,161.575 H 246.614 V 0 H 0 Z"
         transform="translate(-183.96201,-52.437604)"
         id="path41" />
    </clipPath>
    <clipPath
       clipPathUnits="userSpaceOnUse"
       id="clipPath43">
      <path
         d="M 0,161.575 H 246.614 V 0 H 0 Z"
         transform="translate(-191.97201,-45.903401)"
         id="path43" />
    </clipPath>
    <clipPath
       clipPathUnits="userSpaceOnUse"
       id="clipPath45">
      <path
         d="M 0,161.575 H 246.614 V 0 H 0 Z"
         transform="translate(-200.86401,-47.937604)"
         id="path45" />
    </clipPath>
    <clipPath
       clipPathUnits="userSpaceOnUse"
       id="clipPath47">
      <path
         d="M 0,161.575 H 246.614 V 0 H 0 Z"
         transform="translate(-209.75601,-52.437604)"
         id="path47" />
    </clipPath>
    <clipPath
       clipPathUnits="userSpaceOnUse"
       id="clipPath370">
      <path
         d="M 0,2.0525e-6 H 328.81866 V 215.43333 H 0 Z"
         id="path372"
         style="stroke-width:1.33333" />
    </clipPath>
    <clipPath
       clipPathUnits="userSpaceOnUse"
       id="clipPath5-2">
      <path
         d="M 0,161.575 H 246.614 V 0 H 0 Z"
         transform="translate(-104.703,-97.457002)"
         id="path5-7" />
    </clipPath>
    <clipPath
       clipPathUnits="userSpaceOnUse"
       id="clipPath7-8">
      <path
         d="M 0,161.575 H 246.614 V 0 H 0 Z"
         transform="translate(-129.454,-97.457002)"
         id="path7-9" />
    </clipPath>
  </defs>
  <sodipodi:namedview
     id="namedview1"
     pagecolor="#ffffff"
     bordercolor="#000000"
     borderopacity="0.25"
     inkscape:showpageshadow="2"
     inkscape:pageopacity="0.0"
     inkscape:pagecheckerboard="true"
     inkscape:deskcolor="#d1d1d1"
     showgrid="false"
     inkscape:zoom="4.7671359"
     inkscape:cx="164.6691"
     inkscape:cy="112.22671"
     inkscape:window-width="3840"
     inkscape:window-height="2066"
     inkscape:window-x="-11"
     inkscape:window-y="-11"
     inkscape:window-maximized="1"
     inkscape:current-layer="layer-MC2"
     showborder="true">
    <inkscape:page
       x="0"
       y="0"
       inkscape:label="1"
       id="page1"
       width="200"
       height="200"
       margin="0"
       bleed="0" />
  </sodipodi:namedview>
  <g
     id="layer-MC0"
     inkscape:groupmode="layer"
     inkscape:label="Livello 2"
     transform="translate(129.99704,4.5548477)" />
  <g
     id="layer-MC1"
     inkscape:groupmode="layer"
     inkscape:label="Livello 1"
     transform="translate(129.99704,4.5548477)" />
  <g
     id="layer-MC2"
     inkscape:groupmode="layer"
     inkscape:label="Livello 3"
     transform="translate(129.99704,4.5548477)">
    <circle
       style="fill:#f9f9f9;stroke-width:3.77953"
       id="path497"
       cx="-29.997042"
       cy="95.445152"
       r="100" />
    <g
       id="g596"
       transform="translate(51.183773,56.008473)">
      <path
         id="path4"
         d="m 0,0 c 0,2.147 -0.058,4.124 -0.171,5.931 -0.115,1.804 -0.321,3.359 -0.618,4.662 -0.297,1.303 -0.719,2.319 -1.268,3.052 -0.548,0.73 -1.258,1.096 -2.126,1.096 -1.051,0 -1.84,-0.513 -2.365,-1.543 C -7.074,12.17 -7.439,10.753 -7.645,8.947 -7.851,7.142 -7.943,5.039 -7.919,2.64 c 0.022,-2.401 0.034,-4.972 0.034,-7.714 v -7.817 c 0,-2.423 0.103,-4.537 0.308,-6.342 0.206,-1.806 0.56,-3.246 1.063,-4.32 0.503,-1.074 1.28,-1.611 2.331,-1.611 0.914,0 1.725,0.319 2.434,0.96 0.709,0.64 1.063,1.531 1.063,2.674 v 5.759 c 0,1.235 -0.195,2.102 -0.583,2.606 -0.388,0.503 -0.8,0.823 -1.233,0.96 -0.436,0.137 -0.847,0.194 -1.235,0.172 -0.388,-0.025 -0.583,0.056 -0.583,0.239 v 9.257 L 17.416,-2.4 v -9.873 c -0.869,0 -1.543,-0.196 -2.023,-0.583 -0.48,-0.389 -0.823,-0.87 -1.028,-1.44 -0.206,-0.572 -0.333,-1.189 -0.378,-1.851 -0.046,-0.664 -0.068,-1.269 -0.068,-1.818 V -36.683 H 8.845 c -0.732,0.913 -1.417,1.519 -2.057,1.817 -0.641,0.297 -1.258,0.411 -1.851,0.343 -0.595,-0.069 -1.212,-0.275 -1.852,-0.618 -0.64,-0.342 -1.326,-0.685 -2.057,-1.028 -0.731,-0.343 -1.542,-0.651 -2.434,-0.926 -0.891,-0.274 -1.909,-0.365 -3.051,-0.274 -4.022,0.047 -7.405,0.914 -10.147,2.605 -2.743,1.692 -4.972,3.978 -6.686,6.858 -1.714,2.88 -2.948,6.239 -3.702,10.079 -0.755,3.84 -1.132,7.953 -1.132,12.342 0,4.387 0.4,8.524 1.2,12.41 0.799,3.885 2.068,7.267 3.806,10.147 1.737,2.88 3.976,5.143 6.719,6.788 2.743,1.646 6.057,2.446 9.942,2.401 1.234,-0.138 2.239,-0.343 3.017,-0.617 0.777,-0.275 1.394,-0.549 1.852,-0.824 0.456,-0.274 0.811,-0.525 1.062,-0.754 0.251,-0.229 0.514,-0.354 0.789,-0.377 0.274,-0.023 0.593,0.069 0.96,0.275 0.365,0.205 0.891,0.604 1.577,1.199 h 7.405 L 12.205,0 Z"
         style="fill:#231f20;fill-opacity:1;fill-rule:nonzero;stroke:none"
         transform="matrix(1.3333333,0,0,-1.3333333,-105.81748,31.904918)"
         clip-path="url(#clipPath5-2)" />
      <path
         id="path6"
         d="m 0,0 v 25.163 h 7.404 c 0.687,-0.595 1.212,-0.994 1.577,-1.199 0.367,-0.206 0.686,-0.298 0.96,-0.275 0.275,0.023 0.538,0.148 0.789,0.377 0.251,0.229 0.607,0.48 1.063,0.754 0.457,0.275 1.074,0.549 1.852,0.824 0.777,0.274 1.782,0.479 3.016,0.617 3.886,0.045 7.199,-0.755 9.943,-2.401 2.742,-1.645 4.982,-3.908 6.718,-6.788 1.739,-2.88 3.007,-6.262 3.806,-10.147 0.801,-3.886 1.2,-8.023 1.2,-12.41 0,-4.389 -0.377,-8.502 -1.131,-12.342 -0.755,-3.84 -1.989,-7.199 -3.703,-10.079 -1.714,-2.88 -3.942,-5.166 -6.685,-6.858 -2.743,-1.691 -6.125,-2.558 -10.148,-2.605 -1.141,-0.091 -2.16,0 -3.051,0.274 -0.891,0.275 -1.703,0.583 -2.434,0.926 -0.731,0.343 -1.416,0.686 -2.057,1.028 -0.64,0.343 -1.257,0.549 -1.851,0.618 -0.594,0.068 -1.211,-0.046 -1.852,-0.343 -0.64,-0.298 -1.325,-0.904 -2.057,-1.817 h -5.074 v 18.718 c 0,0.549 -0.022,1.154 -0.068,1.818 -0.045,0.662 -0.171,1.279 -0.377,1.851 -0.206,0.57 -0.549,1.051 -1.028,1.44 -0.481,0.387 -1.155,0.583 -2.023,0.583 V -2.4 l 21.735,-0.137 v -9.257 c 0,-0.183 -0.194,-0.264 -0.583,-0.239 -0.387,0.022 -0.799,-0.035 -1.234,-0.172 -0.434,-0.137 -0.846,-0.457 -1.234,-0.96 -0.388,-0.504 -0.583,-1.371 -0.583,-2.606 v -5.759 c 0,-1.143 0.354,-2.034 1.063,-2.674 0.709,-0.641 1.52,-0.96 2.434,-0.96 1.051,0 1.829,0.537 2.331,1.611 0.504,1.074 0.857,2.514 1.063,4.32 0.205,1.805 0.309,3.919 0.309,6.342 v 7.817 c 0,2.742 0.012,5.313 0.034,7.714 0.023,2.399 -0.069,4.502 -0.274,6.307 -0.206,1.806 -0.572,3.223 -1.098,4.251 -0.524,1.03 -1.314,1.543 -2.365,1.543 -0.867,0 -1.577,-0.366 -2.125,-1.096 C 13.713,12.912 13.291,11.896 12.993,10.593 12.696,9.29 12.49,7.735 12.376,5.931 12.262,4.124 12.204,2.147 12.204,0 Z"
         style="fill:#231f20;fill-opacity:1;fill-rule:nonzero;stroke:none"
         transform="matrix(1.3333333,0,0,-1.3333333,-72.81615,32.114688)"
         clip-path="url(#clipPath7-8)" />
    </g>
  </g>
</svg>
