<?xml version="1.0" encoding="UTF-8" standalone="no"?>
<!-- Created with Inkscape (http://www.inkscape.org/) -->

<svg
   version="1.1"
   id="svg1"
   width="328.81866"
   height="215.43333"
   viewBox="0 0 328.81866 215.43333"
   sodipodi:docname="logo.svg"
   inkscape:version="1.2 (dc2aedaf03, 2022-05-15)"
   xmlns:inkscape="http://www.inkscape.org/namespaces/inkscape"
   xmlns:sodipodi="http://sodipodi.sourceforge.net/DTD/sodipodi-0.dtd"
   xmlns="http://www.w3.org/2000/svg"
   xmlns:svg="http://www.w3.org/2000/svg">
  <defs
     id="defs1">
    <clipPath
       clipPathUnits="userSpaceOnUse"
       id="clipPath1">
      <path
         d="m -6.898,-6.016 h 260.41 V 167.591 H -6.898 Z"
         transform="matrix(0,0.0038401,0.00576014,0,0.03465343,0.026489)"
         id="path1" />
    </clipPath>
    <clipPath
       clipPathUnits="userSpaceOnUse"
       id="clipPath2">
      <path
         d="M -6.89812,167.591 H 253.512 V -6.01607 H -6.89812 Z"
         transform="matrix(1.3333333,0,0,-1.3333333,0,215.43333)"
         id="path2" />
    </clipPath>
    <clipPath
       clipPathUnits="userSpaceOnUse"
       id="clipPath5">
      <path
         d="M 0,161.575 H 246.614 V 0 H 0 Z"
         transform="translate(-104.703,-97.457002)"
         id="path5" />
    </clipPath>
    <clipPath
       clipPathUnits="userSpaceOnUse"
       id="clipPath7">
      <path
         d="M 0,161.575 H 246.614 V 0 H 0 Z"
         transform="translate(-129.454,-97.457002)"
         id="path7" />
    </clipPath>
    <clipPath
       clipPathUnits="userSpaceOnUse"
       id="clipPath9">
      <path
         d="M 0,161.575 H 246.614 V 0 H 0 Z"
         transform="translate(-38.506301,-49.521604)"
         id="path9" />
    </clipPath>
    <clipPath
       clipPathUnits="userSpaceOnUse"
       id="clipPath11">
      <path
         d="M 0,161.575 H 246.614 V 0 H 0 Z"
         transform="translate(-47.758201,-47.235401)"
         id="path11" />
    </clipPath>
    <clipPath
       clipPathUnits="userSpaceOnUse"
       id="clipPath13">
      <path
         d="M 0,161.575 H 246.614 V 0 H 0 Z"
         transform="translate(-60.934001,-45.057701)"
         id="path13" />
    </clipPath>
    <clipPath
       clipPathUnits="userSpaceOnUse"
       id="clipPath15">
      <path
         d="M 0,161.575 H 246.614 V 0 H 0 Z"
         transform="translate(-68.043902,-52.437604)"
         id="path15" />
    </clipPath>
    <clipPath
       clipPathUnits="userSpaceOnUse"
       id="clipPath17">
      <path
         d="M 0,161.575 H 246.614 V 0 H 0 Z"
         transform="translate(-76.395902,-41.619199)"
         id="path17" />
    </clipPath>
    <clipPath
       clipPathUnits="userSpaceOnUse"
       id="clipPath19">
      <path
         d="M 0,161.575 H 246.614 V 0 H 0 Z"
         transform="translate(-85.4677,-47.937604)"
         id="path19" />
    </clipPath>
    <clipPath
       clipPathUnits="userSpaceOnUse"
       id="clipPath21">
      <path
         d="M 0,161.575 H 246.614 V 0 H 0 Z"
         transform="translate(-96.429602,-51.141701)"
         id="path21" />
    </clipPath>
    <clipPath
       clipPathUnits="userSpaceOnUse"
       id="clipPath23">
      <path
         d="M 0,161.575 H 246.614 V 0 H 0 Z"
         transform="translate(-100.929,-52.437604)"
         id="path23" />
    </clipPath>
    <clipPath
       clipPathUnits="userSpaceOnUse"
       id="clipPath25">
      <path
         d="M 0,161.575 H 246.614 V 0 H 0 Z"
         transform="translate(-112.809,-43.275499)"
         id="path25" />
    </clipPath>
    <clipPath
       clipPathUnits="userSpaceOnUse"
       id="clipPath27">
      <path
         d="M 0,161.575 H 246.614 V 0 H 0 Z"
         transform="translate(-126.399,-45.903401)"
         id="path27" />
    </clipPath>
    <clipPath
       clipPathUnits="userSpaceOnUse"
       id="clipPath29">
      <path
         d="M 0,161.575 H 246.614 V 0 H 0 Z"
         transform="translate(-134.697,-45.903401)"
         id="path29" />
    </clipPath>
    <clipPath
       clipPathUnits="userSpaceOnUse"
       id="clipPath31">
      <path
         d="M 0,161.575 H 246.614 V 0 H 0 Z"
         transform="translate(-145.10001,-47.559604)"
         id="path31" />
    </clipPath>
    <clipPath
       clipPathUnits="userSpaceOnUse"
       id="clipPath33">
      <path
         d="M 0,161.575 H 246.614 V 0 H 0 Z"
         transform="translate(-152.48001,-51.141701)"
         id="path33" />
    </clipPath>
    <clipPath
       clipPathUnits="userSpaceOnUse"
       id="clipPath35">
      <path
         d="M 0,161.575 H 246.614 V 0 H 0 Z"
         transform="translate(-158.87001,-47.973701)"
         id="path35" />
    </clipPath>
    <clipPath
       clipPathUnits="userSpaceOnUse"
       id="clipPath37">
      <path
         d="M 0,161.575 H 246.614 V 0 H 0 Z"
         transform="translate(-169.45401,-36.273498)"
         id="path37" />
    </clipPath>
    <clipPath
       clipPathUnits="userSpaceOnUse"
       id="clipPath39">
      <path
         d="M 0,161.575 H 246.614 V 0 H 0 Z"
         transform="translate(-181.15401,-47.973701)"
         id="path39" />
    </clipPath>
    <clipPath
       clipPathUnits="userSpaceOnUse"
       id="clipPath41">
      <path
         d="M 0,161.575 H 246.614 V 0 H 0 Z"
         transform="translate(-183.96201,-52.437604)"
         id="path41" />
    </clipPath>
    <clipPath
       clipPathUnits="userSpaceOnUse"
       id="clipPath43">
      <path
         d="M 0,161.575 H 246.614 V 0 H 0 Z"
         transform="translate(-191.97201,-45.903401)"
         id="path43" />
    </clipPath>
    <clipPath
       clipPathUnits="userSpaceOnUse"
       id="clipPath45">
      <path
         d="M 0,161.575 H 246.614 V 0 H 0 Z"
         transform="translate(-200.86401,-47.937604)"
         id="path45" />
    </clipPath>
    <clipPath
       clipPathUnits="userSpaceOnUse"
       id="clipPath47">
      <path
         d="M 0,161.575 H 246.614 V 0 H 0 Z"
         transform="translate(-209.75601,-52.437604)"
         id="path47" />
    </clipPath>
    <clipPath
       clipPathUnits="userSpaceOnUse"
       id="clipPath370">
      <path
         d="M 0,2.0525e-6 H 328.81866 V 215.43333 H 0 Z"
         id="path372"
         style="stroke-width:1.33333" />
    </clipPath>
  </defs>
  <sodipodi:namedview
     id="namedview1"
     pagecolor="#ffffff"
     bordercolor="#000000"
     borderopacity="0.25"
     inkscape:showpageshadow="2"
     inkscape:pageopacity="0.0"
     inkscape:pagecheckerboard="0"
     inkscape:deskcolor="#d1d1d1"
     showgrid="false"
     inkscape:zoom="4.7671359"
     inkscape:cx="99.955196"
     inkscape:cy="107.61178"
     inkscape:window-width="3840"
     inkscape:window-height="2066"
     inkscape:window-x="-11"
     inkscape:window-y="-11"
     inkscape:window-maximized="1"
     inkscape:current-layer="layer-MC1">
    <inkscape:page
       x="0"
       y="0"
       inkscape:label="1"
       id="page1"
       width="328.81866"
       height="215.43333"
       margin="0"
       bleed="0" />
  </sodipodi:namedview>
  <g
     id="layer-MC0"
     inkscape:groupmode="layer"
     inkscape:label="Livello 2" />
  <g
     id="layer-MC1"
     inkscape:groupmode="layer"
     inkscape:label="Livello 1">
    <path
       id="path4"
       d="m 0,0 c 0,2.147 -0.058,4.124 -0.171,5.931 -0.115,1.804 -0.321,3.359 -0.618,4.662 -0.297,1.303 -0.719,2.319 -1.268,3.052 -0.548,0.73 -1.258,1.096 -2.126,1.096 -1.051,0 -1.84,-0.513 -2.365,-1.543 C -7.074,12.17 -7.439,10.753 -7.645,8.947 -7.851,7.142 -7.943,5.039 -7.919,2.64 c 0.022,-2.401 0.034,-4.972 0.034,-7.714 v -7.817 c 0,-2.423 0.103,-4.537 0.308,-6.342 0.206,-1.806 0.56,-3.246 1.063,-4.32 0.503,-1.074 1.28,-1.611 2.331,-1.611 0.914,0 1.725,0.319 2.434,0.96 0.709,0.64 1.063,1.531 1.063,2.674 v 5.759 c 0,1.235 -0.195,2.102 -0.583,2.606 -0.388,0.503 -0.8,0.823 -1.233,0.96 -0.436,0.137 -0.847,0.194 -1.235,0.172 -0.388,-0.025 -0.583,0.056 -0.583,0.239 v 9.257 L 17.416,-2.4 v -9.873 c -0.869,0 -1.543,-0.196 -2.023,-0.583 -0.48,-0.389 -0.823,-0.87 -1.028,-1.44 -0.206,-0.572 -0.333,-1.189 -0.378,-1.851 -0.046,-0.664 -0.068,-1.269 -0.068,-1.818 V -36.683 H 8.845 c -0.732,0.913 -1.417,1.519 -2.057,1.817 -0.641,0.297 -1.258,0.411 -1.851,0.343 -0.595,-0.069 -1.212,-0.275 -1.852,-0.618 -0.64,-0.342 -1.326,-0.685 -2.057,-1.028 -0.731,-0.343 -1.542,-0.651 -2.434,-0.926 -0.891,-0.274 -1.909,-0.365 -3.051,-0.274 -4.022,0.047 -7.405,0.914 -10.147,2.605 -2.743,1.692 -4.972,3.978 -6.686,6.858 -1.714,2.88 -2.948,6.239 -3.702,10.079 -0.755,3.84 -1.132,7.953 -1.132,12.342 0,4.387 0.4,8.524 1.2,12.41 0.799,3.885 2.068,7.267 3.806,10.147 1.737,2.88 3.976,5.143 6.719,6.788 2.743,1.646 6.057,2.446 9.942,2.401 1.234,-0.138 2.239,-0.343 3.017,-0.617 0.777,-0.275 1.394,-0.549 1.852,-0.824 0.456,-0.274 0.811,-0.525 1.062,-0.754 0.251,-0.229 0.514,-0.354 0.789,-0.377 0.274,-0.023 0.593,0.069 0.96,0.275 0.365,0.205 0.891,0.604 1.577,1.199 h 7.405 L 12.205,0 Z"
       style="fill:#231f20;fill-opacity:1;fill-rule:nonzero;stroke:none"
       transform="matrix(1.3333333,0,0,-1.3333333,139.604,85.490667)"
       clip-path="url(#clipPath5)" />
    <path
       id="path6"
       d="m 0,0 v 25.163 h 7.404 c 0.687,-0.595 1.212,-0.994 1.577,-1.199 0.367,-0.206 0.686,-0.298 0.96,-0.275 0.275,0.023 0.538,0.148 0.789,0.377 0.251,0.229 0.607,0.48 1.063,0.754 0.457,0.275 1.074,0.549 1.852,0.824 0.777,0.274 1.782,0.479 3.016,0.617 3.886,0.045 7.199,-0.755 9.943,-2.401 2.742,-1.645 4.982,-3.908 6.718,-6.788 1.739,-2.88 3.007,-6.262 3.806,-10.147 0.801,-3.886 1.2,-8.023 1.2,-12.41 0,-4.389 -0.377,-8.502 -1.131,-12.342 -0.755,-3.84 -1.989,-7.199 -3.703,-10.079 -1.714,-2.88 -3.942,-5.166 -6.685,-6.858 -2.743,-1.691 -6.125,-2.558 -10.148,-2.605 -1.141,-0.091 -2.16,0 -3.051,0.274 -0.891,0.275 -1.703,0.583 -2.434,0.926 -0.731,0.343 -1.416,0.686 -2.057,1.028 -0.64,0.343 -1.257,0.549 -1.851,0.618 -0.594,0.068 -1.211,-0.046 -1.852,-0.343 -0.64,-0.298 -1.325,-0.904 -2.057,-1.817 h -5.074 v 18.718 c 0,0.549 -0.022,1.154 -0.068,1.818 -0.045,0.662 -0.171,1.279 -0.377,1.851 -0.206,0.57 -0.549,1.051 -1.028,1.44 -0.481,0.387 -1.155,0.583 -2.023,0.583 V -2.4 l 21.735,-0.137 v -9.257 c 0,-0.183 -0.194,-0.264 -0.583,-0.239 -0.387,0.022 -0.799,-0.035 -1.234,-0.172 -0.434,-0.137 -0.846,-0.457 -1.234,-0.96 -0.388,-0.504 -0.583,-1.371 -0.583,-2.606 v -5.759 c 0,-1.143 0.354,-2.034 1.063,-2.674 0.709,-0.641 1.52,-0.96 2.434,-0.96 1.051,0 1.829,0.537 2.331,1.611 0.504,1.074 0.857,2.514 1.063,4.32 0.205,1.805 0.309,3.919 0.309,6.342 v 7.817 c 0,2.742 0.012,5.313 0.034,7.714 0.023,2.399 -0.069,4.502 -0.274,6.307 -0.206,1.806 -0.572,3.223 -1.098,4.251 -0.524,1.03 -1.314,1.543 -2.365,1.543 -0.867,0 -1.577,-0.366 -2.125,-1.096 C 13.713,12.912 13.291,11.896 12.993,10.593 12.696,9.29 12.49,7.735 12.376,5.931 12.262,4.124 12.204,2.147 12.204,0 Z"
       style="fill:#231f20;fill-opacity:1;fill-rule:nonzero;stroke:none"
       transform="matrix(1.3333333,0,0,-1.3333333,172.60533,85.490667)"
       clip-path="url(#clipPath7)" />
    <path
       id="path8"
       d="M 0,0 C -0.384,0 -0.663,-0.048 -0.837,-0.144 -1.011,-0.24 -1.128,-0.39 -1.188,-0.594 v -8.82 c 0.096,-0.264 0.222,-0.459 0.378,-0.585 0.156,-0.126 0.426,-0.189 0.81,-0.189 v -2.988 h -6.606 v 2.952 c 0.312,0 0.573,0.057 0.783,0.171 0.21,0.114 0.345,0.267 0.405,0.459 v 9 c -0.072,0.096 -0.138,0.177 -0.198,0.243 -0.06,0.066 -0.132,0.12 -0.216,0.163 -0.084,0.041 -0.189,0.074 -0.315,0.098 -0.126,0.024 -0.279,0.054 -0.459,0.09 V 3.024 H 0 Z"
       style="fill:#231f20;fill-opacity:1;fill-rule:nonzero;stroke:none"
       transform="matrix(1.3333333,0,0,-1.3333333,51.341733,149.40453)"
       clip-path="url(#clipPath9)" />
    <path
       id="path10"
       d="M 0,0 C 0.3,0.216 0.645,0.399 1.035,0.549 1.425,0.699 1.827,0.804 2.241,0.864 2.655,0.924 3.069,0.93 3.483,0.882 3.897,0.834 4.29,0.721 4.662,0.54 4.878,0.444 5.061,0.273 5.211,0.027 c 0.15,-0.246 0.27,-0.522 0.36,-0.828 0.09,-0.305 0.15,-0.627 0.18,-0.963 C 5.781,-2.1 5.784,-2.412 5.76,-2.7 V -7.452 C 5.892,-7.62 6.012,-7.728 6.12,-7.775 6.228,-7.824 6.402,-7.866 6.642,-7.901 v -3.025 H 2.034 v 2.952 c 0.192,0.073 0.345,0.154 0.459,0.244 0.114,0.089 0.183,0.218 0.207,0.386 v 4.68 C 2.652,-2.532 2.616,-2.409 2.592,-2.295 2.568,-2.181 2.529,-2.079 2.475,-1.989 2.421,-1.898 2.337,-1.827 2.223,-1.772 2.109,-1.719 1.938,-1.686 1.71,-1.674 1.458,-1.674 1.269,-1.701 1.143,-1.755 1.017,-1.809 0.927,-1.884 0.873,-1.979 0.819,-2.076 0.786,-2.184 0.774,-2.304 0.762,-2.424 0.738,-2.556 0.702,-2.7 L 0.738,-7.452 C 0.822,-7.644 0.909,-7.77 0.999,-7.83 1.089,-7.89 1.224,-7.937 1.404,-7.974 v -2.952 h -4.608 v 2.952 c 0.228,0.108 0.393,0.192 0.495,0.252 0.102,0.06 0.171,0.174 0.207,0.342 v 4.897 c -0.132,0.227 -0.258,0.407 -0.378,0.54 -0.12,0.131 -0.288,0.209 -0.504,0.233 -0.3,0.024 -0.513,-0.03 -0.639,-0.162 -0.126,-0.132 -0.249,-0.312 -0.369,-0.54 V -7.38 c 0.024,-0.192 0.093,-0.318 0.207,-0.378 0.114,-0.06 0.243,-0.12 0.387,-0.179 v -2.989 h -4.68 v 2.952 c 0.24,0.108 0.423,0.21 0.549,0.306 0.126,0.096 0.201,0.228 0.225,0.397 v 4.788 c -0.096,0.191 -0.204,0.35 -0.324,0.476 -0.12,0.126 -0.282,0.225 -0.486,0.297 v 2.412 h 3.834 l 0.072,-0.521 c 0.3,0.143 0.618,0.278 0.954,0.404 0.336,0.126 0.681,0.216 1.035,0.27 0.354,0.054 0.705,0.06 1.053,0.018 C -1.218,0.831 -0.888,0.721 -0.576,0.54 -0.468,0.48 -0.363,0.402 -0.261,0.307 -0.159,0.21 -0.072,0.108 0,0"
       style="fill:#231f20;fill-opacity:1;fill-rule:nonzero;stroke:none"
       transform="matrix(1.3333333,0,0,-1.3333333,63.6776,152.4528)"
       clip-path="url(#clipPath11)" />
    <path
       id="path12"
       d="M 0,0 C -0.204,0.504 -0.402,0.774 -0.594,0.81 -0.726,0.786 -0.852,0.714 -0.972,0.594 -1.092,0.474 -1.164,0.275 -1.188,0 v -5.13 c 0,-0.24 0.051,-0.456 0.153,-0.648 0.102,-0.192 0.237,-0.306 0.405,-0.342 0.204,0 0.339,0.057 0.405,0.171 0.066,0.114 0.141,0.308 0.225,0.585 0.216,0.84 0.315,1.716 0.297,2.628 C 0.279,-1.824 0.18,-0.912 0,0 M 0.144,3.24 C 0.66,3.276 1.155,3.183 1.629,2.961 2.103,2.738 2.466,2.424 2.718,2.016 3.138,1.355 3.456,0.633 3.672,-0.153 3.888,-0.939 4.008,-1.746 4.032,-2.574 4.056,-3.402 3.984,-4.225 3.816,-5.04 3.648,-5.856 3.396,-6.624 3.06,-7.344 2.796,-7.92 2.373,-8.334 1.791,-8.586 1.209,-8.838 0.588,-8.928 -0.072,-8.856 c -0.276,0.024 -0.51,0.072 -0.702,0.144 -0.192,0.072 -0.378,0.155 -0.558,0.252 0.012,-0.097 0.027,-0.225 0.045,-0.387 0.018,-0.162 0.057,-0.327 0.117,-0.495 0.06,-0.168 0.153,-0.321 0.279,-0.459 0.126,-0.137 0.297,-0.231 0.513,-0.279 v -2.142 H -5.58 v 2.106 c 0.192,0.06 0.324,0.133 0.396,0.216 0.072,0.084 0.138,0.198 0.198,0.342 v 9.81 c -0.06,0.18 -0.138,0.306 -0.234,0.378 -0.096,0.072 -0.276,0.12 -0.54,0.144 v 2.178 h 3.834 c 0.108,-0.084 0.177,-0.156 0.207,-0.216 0.03,-0.06 0.111,-0.126 0.243,-0.198 0.444,0.324 0.984,0.558 1.62,0.702"
       style="fill:#231f20;fill-opacity:1;fill-rule:nonzero;stroke:none"
       transform="matrix(1.3333333,0,0,-1.3333333,81.245333,155.3564)"
       clip-path="url(#clipPath13)" />
    <path
       id="path14"
       d="M 0,0 C 0.516,0 0.948,-0.174 1.296,-0.521 1.644,-0.87 1.818,-1.302 1.818,-1.818 1.818,-2.07 1.77,-2.304 1.674,-2.52 1.578,-2.736 1.449,-2.925 1.287,-3.087 1.125,-3.249 0.933,-3.378 0.711,-3.474 0.489,-3.57 0.252,-3.618 0,-3.618 c -0.504,0 -0.93,0.174 -1.278,0.522 -0.348,0.348 -0.522,0.774 -0.522,1.278 0,0.252 0.048,0.489 0.144,0.712 0.096,0.221 0.225,0.413 0.387,0.575 0.162,0.162 0.351,0.291 0.567,0.387 C -0.486,-0.048 -0.252,0 0,0 m 1.818,-4.464 v -8.01 c 0.132,-0.24 0.279,-0.414 0.441,-0.522 0.162,-0.108 0.345,-0.18 0.549,-0.216 v -2.916 h -5.094 v 2.916 c 0.264,0.108 0.459,0.222 0.585,0.342 0.126,0.12 0.201,0.264 0.225,0.432 v 4.788 c -0.18,0.384 -0.462,0.642 -0.846,0.774 v 2.412 z"
       style="fill:#231f20;fill-opacity:1;fill-rule:nonzero;stroke:none"
       transform="matrix(1.3333333,0,0,-1.3333333,90.7252,145.51653)"
       clip-path="url(#clipPath15)" />
    <path
       id="path16"
       d="M 0,0 -0.486,-0.144 C -0.57,-0.155 -0.672,-0.191 -0.792,-0.252 -0.912,-0.312 -1.026,-0.39 -1.134,-0.485 -1.242,-0.582 -1.335,-0.689 -1.413,-0.81 -1.491,-0.93 -1.53,-1.05 -1.53,-1.17 c 0,-0.143 0.003,-0.314 0.009,-0.513 0.006,-0.198 0.027,-0.393 0.063,-0.585 0.036,-0.192 0.096,-0.363 0.18,-0.512 0.084,-0.151 0.198,-0.243 0.342,-0.28 0.096,-0.024 0.183,-0.03 0.261,-0.017 0.078,0.012 0.129,0.017 0.153,0.017 0.096,0.037 0.207,0.105 0.333,0.207 C -0.063,-2.751 0,-2.586 0,-2.357 Z m -1.53,6.498 c 0.348,0.036 0.738,0.055 1.17,0.055 0.444,0 0.873,-0.039 1.287,-0.117 C 1.341,6.357 1.716,6.229 2.052,6.049 2.388,5.868 2.634,5.61 2.79,5.274 2.91,5.011 3.003,4.737 3.069,4.455 3.135,4.173 3.168,3.895 3.168,3.618 v -5.76 c 0.024,-0.095 0.051,-0.21 0.081,-0.341 0.03,-0.133 0.111,-0.199 0.243,-0.199 0.18,0 0.309,0.034 0.387,0.099 0.078,0.066 0.129,0.145 0.153,0.234 0.024,0.09 0.033,0.186 0.027,0.288 C 4.053,-1.959 4.05,-1.871 4.05,-1.8 H 4.788 V -3.798 C 4.728,-4.109 4.617,-4.367 4.455,-4.571 4.293,-4.775 4.107,-4.94 3.897,-5.066 3.687,-5.192 3.465,-5.286 3.231,-5.346 2.997,-5.405 2.778,-5.441 2.574,-5.453 c -0.42,0.023 -0.828,0.084 -1.224,0.18 -0.396,0.095 -0.714,0.246 -0.954,0.45 -0.132,-0.025 -0.249,-0.058 -0.351,-0.1 -0.102,-0.042 -0.204,-0.093 -0.306,-0.152 -0.102,-0.061 -0.213,-0.117 -0.333,-0.171 -0.12,-0.055 -0.258,-0.1 -0.414,-0.136 -0.444,-0.071 -0.918,-0.081 -1.422,-0.026 -0.504,0.054 -0.912,0.182 -1.224,0.387 -0.312,0.179 -0.549,0.422 -0.711,0.728 -0.162,0.307 -0.279,0.633 -0.351,0.981 -0.072,0.348 -0.111,0.706 -0.117,1.072 -0.006,0.365 0.003,0.704 0.027,1.016 0.012,0.3 0.069,0.565 0.171,0.792 0.102,0.228 0.234,0.429 0.396,0.604 0.162,0.174 0.348,0.333 0.558,0.476 0.21,0.144 0.429,0.283 0.657,0.414 0.228,0.132 0.471,0.231 0.729,0.297 0.258,0.066 0.513,0.129 0.765,0.19 0.252,0.059 0.498,0.126 0.738,0.197 0.24,0.072 0.462,0.181 0.666,0.324 C -0.09,2.166 -0.048,2.25 0,2.322 L 0.036,3.834 C 0,4.002 -0.081,4.107 -0.207,4.149 -0.333,4.191 -0.486,4.213 -0.666,4.213 -0.75,4.213 -0.894,4.191 -1.098,4.149 -1.302,4.107 -1.44,4.038 -1.512,3.942 V 2.7 C -1.608,2.389 -1.776,2.169 -2.016,2.043 -2.256,1.917 -2.58,1.854 -2.988,1.854 -3.384,1.963 -3.729,2.134 -4.023,2.367 -4.317,2.602 -4.476,2.904 -4.5,3.276 c -0.06,0.577 0.024,1.095 0.252,1.557 0.228,0.462 0.546,0.831 0.954,1.107 0.264,0.192 0.552,0.328 0.864,0.406 0.312,0.077 0.612,0.129 0.9,0.152"
       style="fill:#231f20;fill-opacity:1;fill-rule:nonzero;stroke:none"
       transform="matrix(1.3333333,0,0,-1.3333333,101.8612,159.94107)"
       clip-path="url(#clipPath17)" />
    <path
       id="path18"
       d="m 0,0 0.036,-0.521 c 0.3,0.143 0.618,0.278 0.954,0.404 0.336,0.126 0.681,0.216 1.035,0.27 0.354,0.054 0.708,0.06 1.062,0.018 0.354,-0.042 0.693,-0.152 1.017,-0.333 0.204,-0.12 0.381,-0.303 0.531,-0.549 0.15,-0.246 0.27,-0.525 0.36,-0.837 0.09,-0.312 0.153,-0.633 0.189,-0.963 0.036,-0.33 0.042,-0.639 0.018,-0.927 V -8.154 C 5.31,-8.395 5.433,-8.553 5.571,-8.631 5.709,-8.709 5.88,-8.76 6.084,-8.784 v -2.88 H 1.44 v 2.88 c 0.24,0.096 0.411,0.195 0.513,0.297 0.102,0.102 0.165,0.237 0.189,0.405 v 4.896 C 2.01,-2.958 1.884,-2.778 1.764,-2.646 1.644,-2.514 1.476,-2.437 1.26,-2.412 0.984,-2.388 0.777,-2.442 0.639,-2.574 0.501,-2.706 0.372,-2.886 0.252,-3.114 L 0.288,-8.082 C 0.3,-8.274 0.36,-8.412 0.468,-8.496 0.576,-8.58 0.702,-8.652 0.846,-8.712 v -2.88 h -4.644 v 2.844 c 0.444,0.18 0.702,0.438 0.774,0.774 v 4.788 c -0.18,0.384 -0.45,0.642 -0.81,0.774 V 0 Z"
       style="fill:#231f20;fill-opacity:1;fill-rule:nonzero;stroke:none"
       transform="matrix(1.3333333,0,0,-1.3333333,113.95693,151.51653)"
       clip-path="url(#clipPath19)" />
    <path
       id="path20"
       d="M 0,0 V -3.132 H 1.512 V -5.544 H 0.036 v -6.444 c 0,-0.144 0.036,-0.264 0.108,-0.36 0.072,-0.096 0.147,-0.15 0.225,-0.162 0.078,-0.012 0.153,0.021 0.225,0.099 0.072,0.078 0.108,0.219 0.108,0.423 v 1.242 l 0.846,0.054 v -3.114 c -0.012,-0.204 -0.102,-0.376 -0.27,-0.513 -0.168,-0.138 -0.369,-0.246 -0.603,-0.324 -0.234,-0.079 -0.483,-0.135 -0.747,-0.171 -0.264,-0.036 -0.498,-0.054 -0.702,-0.054 -0.24,0 -0.495,0.003 -0.765,0.009 -0.27,0.006 -0.522,0.045 -0.756,0.117 -0.234,0.072 -0.435,0.186 -0.603,0.342 -0.168,0.156 -0.27,0.378 -0.306,0.666 v 8.19 h -1.188 v 2.412 c 0.18,-0.013 0.369,0.027 0.567,0.117 0.198,0.09 0.384,0.207 0.558,0.351 0.174,0.143 0.333,0.3 0.477,0.468 0.144,0.168 0.252,0.33 0.324,0.486 0.132,0.228 0.225,0.465 0.279,0.711 0.054,0.246 0.081,0.579 0.081,0.999 z"
       style="fill:#231f20;fill-opacity:1;fill-rule:nonzero;stroke:none"
       transform="matrix(1.3333333,0,0,-1.3333333,128.5728,147.2444)"
       clip-path="url(#clipPath21)" />
    <path
       id="path22"
       d="M 0,0 C 0.516,0 0.948,-0.174 1.296,-0.521 1.644,-0.87 1.818,-1.302 1.818,-1.818 1.818,-2.07 1.77,-2.304 1.674,-2.52 1.578,-2.736 1.449,-2.925 1.287,-3.087 1.125,-3.249 0.933,-3.378 0.711,-3.474 0.489,-3.57 0.252,-3.618 0,-3.618 c -0.504,0 -0.93,0.174 -1.278,0.522 -0.348,0.348 -0.522,0.774 -0.522,1.278 0,0.252 0.048,0.489 0.144,0.712 0.096,0.221 0.225,0.413 0.387,0.575 0.162,0.162 0.351,0.291 0.567,0.387 C -0.486,-0.048 -0.252,0 0,0 m 1.818,-4.464 v -8.01 c 0.132,-0.24 0.279,-0.414 0.441,-0.522 0.162,-0.108 0.345,-0.18 0.549,-0.216 v -2.916 h -5.094 v 2.916 c 0.264,0.108 0.459,0.222 0.585,0.342 0.126,0.12 0.201,0.264 0.225,0.432 v 4.788 c -0.18,0.384 -0.462,0.642 -0.846,0.774 v 2.412 z"
       style="fill:#231f20;fill-opacity:1;fill-rule:nonzero;stroke:none"
       transform="matrix(1.3333333,0,0,-1.3333333,134.572,145.51653)"
       clip-path="url(#clipPath23)" />
    <path
       id="path24"
       d="M 0,0 C 0,0.984 -0.087,1.668 -0.261,2.052 -0.435,2.437 -0.678,2.628 -0.99,2.628 -1.23,2.64 -1.41,2.511 -1.53,2.241 -1.65,1.971 -1.731,1.665 -1.773,1.323 -1.815,0.981 -1.836,0.666 -1.836,0.378 v -0.414 z m -1.026,-7.146 c -0.636,0 -1.23,0.157 -1.782,0.468 -0.552,0.312 -1.035,0.741 -1.449,1.287 -0.414,0.546 -0.741,1.185 -0.981,1.917 -0.24,0.732 -0.36,1.512 -0.36,2.34 0,0.828 0.12,1.605 0.36,2.331 0.24,0.726 0.567,1.36 0.981,1.899 0.414,0.54 0.897,0.966 1.449,1.278 0.552,0.313 1.146,0.468 1.782,0.468 0.636,0 1.224,-0.177 1.764,-0.53 C 1.278,3.957 1.746,3.486 2.142,2.898 2.538,2.311 2.847,1.635 3.069,0.873 3.291,0.111 3.402,-0.684 3.402,-1.512 h -5.094 c -0.048,-0.179 -0.075,-0.423 -0.081,-0.729 -0.006,-0.306 0.021,-0.609 0.081,-0.908 0.06,-0.301 0.162,-0.565 0.306,-0.792 0.144,-0.229 0.348,-0.349 0.612,-0.361 0.108,-0.011 0.213,0.003 0.315,0.045 0.102,0.042 0.192,0.129 0.27,0.261 0.078,0.132 0.141,0.318 0.189,0.558 0.048,0.24 0.072,0.552 0.072,0.936 h 3.33 C 3.294,-3.186 3.108,-3.813 2.844,-4.383 2.58,-4.953 2.253,-5.442 1.863,-5.85 1.473,-6.258 1.032,-6.576 0.54,-6.804 0.048,-7.031 -0.474,-7.146 -1.026,-7.146"
       style="fill:#231f20;fill-opacity:1;fill-rule:nonzero;stroke:none"
       transform="matrix(1.3333333,0,0,-1.3333333,150.412,157.73267)"
       clip-path="url(#clipPath25)" />
    <path
       id="path26"
       d="M 0,0 C 0,0.564 -0.015,1.083 -0.045,1.558 -0.075,2.031 -0.129,2.439 -0.207,2.781 -0.285,3.123 -0.396,3.391 -0.54,3.582 -0.684,3.774 -0.87,3.87 -1.098,3.87 -1.374,3.87 -1.581,3.735 -1.719,3.465 -1.857,3.195 -1.953,2.823 -2.007,2.35 -2.061,1.875 -2.085,1.323 -2.079,0.693 -2.073,0.063 -2.07,-0.611 -2.07,-1.332 v -2.052 c 0,-0.636 0.027,-1.191 0.081,-1.665 0.054,-0.473 0.147,-0.852 0.279,-1.134 0.132,-0.282 0.336,-0.422 0.612,-0.422 0.264,0 0.468,0.101 0.612,0.305 0.144,0.204 0.249,0.498 0.315,0.882 0.066,0.384 0.105,0.858 0.117,1.422 0.012,0.564 0.018,1.206 0.018,1.927 H 3.24 C 3.24,-3.222 3.21,-4.274 3.15,-5.229 3.09,-6.183 2.916,-7.002 2.628,-7.686 2.34,-8.37 1.899,-8.897 1.305,-9.27 0.711,-9.642 -0.114,-9.821 -1.17,-9.81 c -1.056,0.012 -1.944,0.24 -2.664,0.684 -0.72,0.444 -1.305,1.044 -1.755,1.8 -0.45,0.757 -0.774,1.639 -0.972,2.646 -0.198,1.008 -0.297,2.088 -0.297,3.241 0,1.151 0.105,2.237 0.315,3.257 0.21,1.02 0.543,1.909 0.999,2.664 0.456,0.756 1.044,1.35 1.764,1.783 0.72,0.431 1.59,0.641 2.61,0.63 0.324,-0.037 0.588,-0.09 0.792,-0.163 C -0.174,6.66 -0.012,6.588 0.108,6.517 0.228,6.444 0.321,6.378 0.387,6.318 0.453,6.258 0.522,6.226 0.594,6.22 0.666,6.213 0.75,6.237 0.846,6.291 0.942,6.346 1.08,6.45 1.26,6.606 H 3.204 V 0 Z"
       style="fill:#231f20;fill-opacity:1;fill-rule:nonzero;stroke:none"
       transform="matrix(1.3333333,0,0,-1.3333333,168.532,154.2288)"
       clip-path="url(#clipPath27)" />
    <path
       id="path28"
       d="m 0,0 c -0.144,0 -0.279,-0.096 -0.405,-0.288 -0.126,-0.191 -0.234,-0.453 -0.324,-0.782 -0.09,-0.331 -0.162,-0.715 -0.216,-1.153 -0.054,-0.438 -0.081,-0.903 -0.081,-1.395 0,-0.48 0.027,-0.933 0.081,-1.359 0.054,-0.426 0.126,-0.798 0.216,-1.116 0.09,-0.318 0.198,-0.57 0.324,-0.756 0.126,-0.186 0.261,-0.279 0.405,-0.279 0.156,0 0.297,0.096 0.423,0.288 0.126,0.193 0.234,0.453 0.324,0.783 0.09,0.33 0.159,0.711 0.207,1.143 0.048,0.433 0.072,0.889 0.072,1.368 0,0.492 -0.024,0.954 -0.072,1.386 -0.048,0.432 -0.117,0.807 -0.207,1.125 -0.09,0.318 -0.198,0.57 -0.324,0.757 C 0.297,-0.093 0.156,0 0,0 M -0.036,2.214 C 0.6,2.214 1.197,2.059 1.755,1.746 2.313,1.434 2.802,1.008 3.222,0.468 c 0.42,-0.539 0.75,-1.173 0.99,-1.899 0.241,-0.726 0.361,-1.503 0.361,-2.331 0,-0.828 -0.12,-1.608 -0.361,-2.34 C 3.972,-6.834 3.642,-7.473 3.222,-8.019 2.802,-8.564 2.313,-8.994 1.755,-9.306 1.197,-9.617 0.6,-9.773 -0.036,-9.773 c -0.636,0 -1.23,0.156 -1.782,0.467 -0.552,0.312 -1.035,0.742 -1.449,1.287 -0.414,0.546 -0.741,1.185 -0.981,1.917 -0.24,0.732 -0.36,1.512 -0.36,2.34 0,0.828 0.12,1.605 0.36,2.331 0.24,0.726 0.567,1.36 0.981,1.899 0.414,0.54 0.897,0.966 1.449,1.278 0.552,0.313 1.146,0.468 1.782,0.468"
       style="fill:#231f20;fill-opacity:1;fill-rule:nonzero;stroke:none"
       transform="matrix(1.3333333,0,0,-1.3333333,179.596,154.2288)"
       clip-path="url(#clipPath29)" />
    <path
       id="path30"
       d="M 0,0 0.306,0.36 H 1.62 V -3.024 H 0.072 c -0.06,0.144 -0.114,0.273 -0.162,0.387 -0.048,0.114 -0.111,0.216 -0.189,0.306 -0.078,0.09 -0.177,0.177 -0.297,0.261 -0.12,0.084 -0.282,0.174 -0.486,0.27 -0.216,0.096 -0.438,0.108 -0.666,0.036 -0.12,-0.06 -0.222,-0.144 -0.306,-0.252 -0.084,-0.108 -0.096,-0.246 -0.036,-0.414 0.156,-0.312 0.363,-0.591 0.621,-0.837 0.258,-0.246 0.534,-0.477 0.828,-0.693 0.294,-0.216 0.594,-0.43 0.9,-0.639 C 0.585,-4.81 0.87,-5.037 1.134,-5.283 1.397,-5.529 1.626,-5.805 1.818,-6.111 2.01,-6.417 2.142,-6.78 2.214,-7.2 2.238,-7.512 2.244,-7.827 2.232,-8.145 2.22,-8.463 2.172,-8.77 2.088,-9.063 2.004,-9.357 1.884,-9.633 1.729,-9.891 c -0.157,-0.258 -0.361,-0.477 -0.613,-0.657 -0.24,-0.18 -0.511,-0.33 -0.81,-0.45 -0.3,-0.12 -0.612,-0.207 -0.936,-0.261 -0.324,-0.054 -0.651,-0.069 -0.981,-0.045 -0.33,0.024 -0.639,0.102 -0.927,0.234 -0.168,0.072 -0.339,0.153 -0.513,0.243 -0.174,0.09 -0.363,0.099 -0.567,0.027 -0.192,-0.096 -0.336,-0.259 -0.432,-0.486 h -1.296 v 4.014 h 1.8 c 0.072,-0.205 0.135,-0.381 0.189,-0.531 0.054,-0.15 0.117,-0.288 0.189,-0.414 0.072,-0.126 0.171,-0.243 0.297,-0.351 0.126,-0.108 0.297,-0.216 0.513,-0.324 0.42,-0.144 0.75,-0.156 0.99,-0.036 0.048,0.024 0.111,0.054 0.189,0.09 0.078,0.036 0.144,0.081 0.199,0.135 0.053,0.054 0.089,0.123 0.107,0.207 0.019,0.084 -0.009,0.198 -0.081,0.342 -0.204,0.312 -0.462,0.6 -0.774,0.864 -0.312,0.264 -0.636,0.524 -0.972,0.783 -0.336,0.258 -0.675,0.519 -1.017,0.783 -0.342,0.264 -0.638,0.555 -0.891,0.873 -0.252,0.318 -0.45,0.668 -0.594,1.053 -0.144,0.384 -0.192,0.828 -0.144,1.332 0,0.612 0.15,1.182 0.45,1.71 0.3,0.527 0.726,0.876 1.278,1.044 0.336,0.108 0.639,0.183 0.909,0.225 0.271,0.042 0.543,0.054 0.819,0.036 C -1.614,0.531 -1.326,0.477 -1.026,0.387 -0.727,0.297 -0.384,0.168 0,0"
       style="fill:#231f20;fill-opacity:1;fill-rule:nonzero;stroke:none"
       transform="matrix(1.3333333,0,0,-1.3333333,193.46667,152.02053)"
       clip-path="url(#clipPath31)" />
    <path
       id="path32"
       d="M 0,0 V -3.132 H 1.512 V -5.544 H 0.036 v -6.444 c 0,-0.144 0.036,-0.264 0.109,-0.36 0.071,-0.096 0.146,-0.15 0.224,-0.162 0.078,-0.012 0.153,0.021 0.225,0.099 0.072,0.078 0.108,0.219 0.108,0.423 v 1.242 l 0.846,0.054 v -3.114 c -0.012,-0.204 -0.102,-0.376 -0.27,-0.513 -0.168,-0.138 -0.369,-0.246 -0.603,-0.324 -0.234,-0.079 -0.483,-0.135 -0.747,-0.171 -0.264,-0.036 -0.498,-0.054 -0.701,-0.054 -0.241,0 -0.496,0.003 -0.766,0.009 -0.27,0.006 -0.522,0.045 -0.756,0.117 -0.234,0.072 -0.434,0.186 -0.602,0.342 -0.169,0.156 -0.271,0.378 -0.307,0.666 v 8.19 h -1.188 v 2.412 c 0.18,-0.013 0.37,0.027 0.567,0.117 0.198,0.09 0.384,0.207 0.558,0.351 0.174,0.143 0.333,0.3 0.477,0.468 0.144,0.168 0.252,0.33 0.324,0.486 0.132,0.228 0.225,0.465 0.279,0.711 0.054,0.246 0.082,0.579 0.082,0.999 z"
       style="fill:#231f20;fill-opacity:1;fill-rule:nonzero;stroke:none"
       transform="matrix(1.3333333,0,0,-1.3333333,203.30667,147.2444)"
       clip-path="url(#clipPath33)" />
    <path
       id="path34"
       d="m 0,0 v -0.828 c 0.42,0.42 0.876,0.699 1.368,0.837 0.492,0.137 0.943,0.159 1.351,0.063 0.515,-0.264 0.854,-0.57 1.016,-0.918 0.162,-0.348 0.244,-0.78 0.244,-1.296 C 3.99,-2.502 3.934,-2.823 3.808,-3.105 3.682,-3.387 3.507,-3.618 3.285,-3.798 3.063,-3.979 2.817,-4.095 2.547,-4.149 2.277,-4.203 2.014,-4.183 1.755,-4.086 1.497,-3.99 1.257,-3.811 1.035,-3.546 0.813,-3.282 0.648,-2.916 0.54,-2.448 0.504,-2.364 0.456,-2.325 0.396,-2.331 0.336,-2.337 0.276,-2.37 0.217,-2.43 0.156,-2.49 0.105,-2.568 0.063,-2.664 0.021,-2.76 0,-2.856 0,-2.952 V -8.046 C 0.097,-8.274 0.229,-8.442 0.396,-8.55 0.564,-8.658 0.763,-8.725 0.99,-8.748 v -2.916 h -5.094 v 2.916 c 0.48,0.18 0.739,0.437 0.774,0.774 v 4.787 c -0.18,0.385 -0.462,0.643 -0.846,0.775 L -4.212,0 Z"
       style="fill:#231f20;fill-opacity:1;fill-rule:nonzero;stroke:none"
       transform="matrix(1.3333333,0,0,-1.3333333,211.82667,151.4684)"
       clip-path="url(#clipPath35)" />
    <path
       id="path36"
       d="M 0,0 -0.072,0.522 C -0.372,0.378 -0.69,0.243 -1.025,0.117 -1.362,-0.009 -1.707,-0.099 -2.061,-0.153 -2.415,-0.207 -2.771,-0.21 -3.132,-0.162 -3.492,-0.114 -3.834,0 -4.158,0.18 -4.362,0.288 -4.533,0.468 -4.671,0.72 -4.809,0.972 -4.92,1.254 -5.004,1.566 -5.088,1.878 -5.147,2.199 -5.184,2.529 -5.22,2.859 -5.238,3.162 -5.238,3.438 V 8.154 C -5.334,8.406 -5.451,8.568 -5.589,8.64 -5.727,8.712 -5.892,8.76 -6.084,8.784 v 2.952 h 3.87 L -2.178,3.204 C -2.046,2.964 -1.92,2.781 -1.8,2.655 -1.68,2.529 -1.512,2.454 -1.296,2.43 c 0.276,-0.024 0.486,0.027 0.63,0.153 0.145,0.126 0.282,0.309 0.414,0.549 v 4.95 c -0.024,0.204 -0.096,0.348 -0.216,0.432 -0.12,0.084 -0.246,0.15 -0.378,0.198 l -0.036,3.024 H 3.024 L 2.988,3.204 C 3.156,2.832 3.426,2.574 3.798,2.43 V 0 Z"
       style="fill:#231f20;fill-opacity:1;fill-rule:nonzero;stroke:none"
       transform="matrix(1.3333333,0,0,-1.3333333,225.93867,167.06867)"
       clip-path="url(#clipPath37)" />
    <path
       id="path38"
       d="M 0,0 -0.036,-2.286 -3.763,-9.09 c 0,-0.06 0.013,-0.105 0.036,-0.135 0.025,-0.03 0.048,-0.057 0.073,-0.081 0.108,-0.096 0.234,-0.117 0.378,-0.063 0.144,0.054 0.263,0.111 0.36,0.171 0.155,0.048 0.288,0.137 0.395,0.27 0.109,0.132 0.199,0.288 0.271,0.468 0.071,0.18 0.132,0.375 0.18,0.585 0.048,0.21 0.095,0.423 0.144,0.639 l 1.997,-0.036 v -4.356 h -7.523 l -0.036,2.952 3.834,6.642 c -0.096,0.036 -0.21,0.051 -0.342,0.045 C -4.129,-1.995 -4.261,-2.01 -4.393,-2.034 -4.572,-2.13 -4.71,-2.223 -4.807,-2.313 -4.902,-2.403 -4.972,-2.502 -5.014,-2.61 -5.056,-2.718 -5.082,-2.841 -5.095,-2.979 -5.106,-3.117 -5.118,-3.282 -5.13,-3.474 L -7.092,-3.51 V 0 Z"
       style="fill:#231f20;fill-opacity:1;fill-rule:nonzero;stroke:none"
       transform="matrix(1.3333333,0,0,-1.3333333,241.53867,151.4684)"
       clip-path="url(#clipPath39)" />
    <path
       id="path40"
       d="M 0,0 C 0.517,0 0.948,-0.174 1.297,-0.521 1.645,-0.87 1.818,-1.302 1.818,-1.818 1.818,-2.07 1.771,-2.304 1.675,-2.52 1.578,-2.736 1.449,-2.925 1.287,-3.087 1.125,-3.249 0.934,-3.378 0.712,-3.474 0.489,-3.57 0.253,-3.618 0,-3.618 c -0.504,0 -0.93,0.174 -1.277,0.522 -0.349,0.348 -0.523,0.774 -0.523,1.278 0,0.252 0.048,0.489 0.145,0.712 0.095,0.221 0.224,0.413 0.386,0.575 0.163,0.162 0.351,0.291 0.568,0.387 C -0.485,-0.048 -0.252,0 0,0 m 1.818,-4.464 v -8.01 c 0.132,-0.24 0.28,-0.414 0.442,-0.522 0.162,-0.108 0.344,-0.18 0.549,-0.216 v -2.916 h -5.094 v 2.916 c 0.264,0.108 0.459,0.222 0.585,0.342 0.126,0.12 0.2,0.264 0.224,0.432 v 4.788 c -0.179,0.384 -0.461,0.642 -0.845,0.774 v 2.412 z"
       style="fill:#231f20;fill-opacity:1;fill-rule:nonzero;stroke:none"
       transform="matrix(1.3333333,0,0,-1.3333333,245.28267,145.51653)"
       clip-path="url(#clipPath41)" />
    <path
       id="path42"
       d="m 0,0 c -0.144,0 -0.278,-0.096 -0.404,-0.288 -0.126,-0.191 -0.235,-0.453 -0.325,-0.782 -0.089,-0.331 -0.162,-0.715 -0.215,-1.153 -0.054,-0.438 -0.081,-0.903 -0.081,-1.395 0,-0.48 0.027,-0.933 0.081,-1.359 0.053,-0.426 0.126,-0.798 0.215,-1.116 0.09,-0.318 0.199,-0.57 0.325,-0.756 0.126,-0.186 0.26,-0.279 0.404,-0.279 0.156,0 0.298,0.096 0.424,0.288 0.126,0.193 0.233,0.453 0.323,0.783 0.091,0.33 0.159,0.711 0.207,1.143 0.048,0.433 0.072,0.889 0.072,1.368 0,0.492 -0.024,0.954 -0.072,1.386 -0.048,0.432 -0.116,0.807 -0.207,1.125 -0.09,0.318 -0.197,0.57 -0.323,0.757 C 0.298,-0.093 0.156,0 0,0 m -0.035,2.214 c 0.636,0 1.232,-0.155 1.791,-0.468 0.557,-0.312 1.047,-0.738 1.467,-1.278 0.42,-0.539 0.75,-1.173 0.99,-1.899 0.239,-0.726 0.359,-1.503 0.359,-2.331 0,-0.828 -0.12,-1.608 -0.359,-2.34 -0.24,-0.732 -0.57,-1.371 -0.99,-1.917 -0.42,-0.545 -0.91,-0.975 -1.467,-1.287 -0.559,-0.311 -1.155,-0.467 -1.791,-0.467 -0.637,0 -1.231,0.156 -1.782,0.467 -0.552,0.312 -1.036,0.742 -1.45,1.287 -0.414,0.546 -0.741,1.185 -0.98,1.917 -0.24,0.732 -0.36,1.512 -0.36,2.34 0,0.828 0.12,1.605 0.36,2.331 0.239,0.726 0.566,1.36 0.98,1.899 0.414,0.54 0.898,0.966 1.45,1.278 0.551,0.313 1.145,0.468 1.782,0.468"
       style="fill:#231f20;fill-opacity:1;fill-rule:nonzero;stroke:none"
       transform="matrix(1.3333333,0,0,-1.3333333,255.96267,154.2288)"
       clip-path="url(#clipPath43)" />
    <path
       id="path44"
       d="m 0,0 0.036,-0.521 c 0.3,0.143 0.617,0.278 0.954,0.404 0.335,0.126 0.681,0.216 1.034,0.27 0.355,0.054 0.708,0.06 1.063,0.018 0.353,-0.042 0.692,-0.152 1.017,-0.333 0.204,-0.12 0.38,-0.303 0.531,-0.549 0.15,-0.246 0.269,-0.525 0.36,-0.837 0.09,-0.312 0.152,-0.633 0.189,-0.963 0.036,-0.33 0.042,-0.639 0.018,-0.927 V -8.154 C 5.31,-8.395 5.433,-8.553 5.57,-8.631 5.709,-8.709 5.88,-8.76 6.084,-8.784 v -2.88 H 1.439 v 2.88 c 0.241,0.096 0.412,0.195 0.514,0.297 0.102,0.102 0.164,0.237 0.189,0.405 v 4.896 C 2.01,-2.958 1.884,-2.778 1.764,-2.646 1.644,-2.514 1.476,-2.437 1.26,-2.412 0.983,-2.388 0.776,-2.442 0.639,-2.574 0.501,-2.706 0.372,-2.886 0.252,-3.114 L 0.288,-8.082 C 0.3,-8.274 0.359,-8.412 0.468,-8.496 0.576,-8.58 0.702,-8.652 0.846,-8.712 v -2.88 h -4.644 v 2.844 c 0.444,0.18 0.701,0.438 0.774,0.774 v 4.788 c -0.18,0.384 -0.451,0.642 -0.81,0.774 V 0 Z"
       style="fill:#231f20;fill-opacity:1;fill-rule:nonzero;stroke:none"
       transform="matrix(1.3333333,0,0,-1.3333333,267.81867,151.51653)"
       clip-path="url(#clipPath45)" />
    <path
       id="path46"
       d="M 0,0 C 0.516,0 0.948,-0.174 1.296,-0.521 1.644,-0.87 1.818,-1.302 1.818,-1.818 1.818,-2.07 1.77,-2.304 1.674,-2.52 1.578,-2.736 1.449,-2.925 1.287,-3.087 1.125,-3.249 0.933,-3.378 0.711,-3.474 0.489,-3.57 0.252,-3.618 0,-3.618 c -0.504,0 -0.93,0.174 -1.278,0.522 -0.348,0.348 -0.522,0.774 -0.522,1.278 0,0.252 0.048,0.489 0.144,0.712 0.095,0.221 0.225,0.413 0.387,0.575 0.162,0.162 0.351,0.291 0.567,0.387 C -0.486,-0.048 -0.252,0 0,0 m 1.818,-4.464 v -8.01 c 0.132,-0.24 0.279,-0.414 0.441,-0.522 0.162,-0.108 0.345,-0.18 0.549,-0.216 v -2.916 h -5.094 v 2.916 c 0.264,0.108 0.459,0.222 0.585,0.342 0.126,0.12 0.201,0.264 0.225,0.432 v 4.788 c -0.18,0.384 -0.462,0.642 -0.846,0.774 v 2.412 z"
       style="fill:#231f20;fill-opacity:1;fill-rule:nonzero;stroke:none"
       transform="matrix(1.3333333,0,0,-1.3333333,279.67467,145.51653)"
       clip-path="url(#clipPath47)" />
  </g>
  <g
     id="layer-MC2"
     inkscape:groupmode="layer"
     inkscape:label="Livello 3">
    <text
       id="text47"
       xml:space="preserve"
       transform="matrix(1.3333333,0,0,1.3333333,230.00133,134.37733)"><tspan
         id="tspan47"
         style="font-variant:normal;font-weight:normal;font-stretch:normal;font-size:17.8195px;font-family:Cairo;writing-mode:lr-tb;fill:#231f20;fill-opacity:1;fill-rule:nonzero;stroke:none"
         x="0"
         y="0">Srl</tspan></text>
  </g>
</svg>
